<mxfile host="Electron" modified="2023-09-15T16:04:32.672Z" agent="Mozilla/5.0 (Windows NT 10.0; Win64; x64) AppleWebKit/537.36 (KHTML, like Gecko) draw.io/21.7.5 Chrome/114.0.5735.289 Electron/25.8.1 Safari/537.36" etag="fvc5UDD1DR385sfCk5d3" version="21.7.5" type="device">
  <diagram id="-2Vx2bZkKNkOaAN5UScZ" name="Diagram">
    <mxGraphModel dx="1121" dy="493" grid="0" gridSize="10" guides="1" tooltips="1" connect="1" arrows="1" fold="1" page="1" pageScale="1" pageWidth="720" pageHeight="590" math="0" shadow="0">
      <root>
        <mxCell id="sbYHViqBqOkO2JZsujo5-0" />
        <mxCell id="sbYHViqBqOkO2JZsujo5-1" parent="sbYHViqBqOkO2JZsujo5-0" />
        <mxCell id="RLHbCU7XjAbYTLyCm93H-0" value="" style="endArrow=none;html=1;strokeWidth=3;strokeColor=#CCCCCC;" parent="sbYHViqBqOkO2JZsujo5-1" edge="1">
          <mxGeometry width="50" height="50" relative="1" as="geometry">
            <mxPoint x="383" y="1" as="sourcePoint" />
            <mxPoint x="383" y="160" as="targetPoint" />
          </mxGeometry>
        </mxCell>
        <mxCell id="RLHbCU7XjAbYTLyCm93H-1" value="" style="endArrow=none;html=1;strokeWidth=3;strokeColor=#CCCCCC;" parent="sbYHViqBqOkO2JZsujo5-1" edge="1">
          <mxGeometry width="50" height="50" relative="1" as="geometry">
            <mxPoint x="100" y="1" as="sourcePoint" />
            <mxPoint x="100" y="160" as="targetPoint" />
          </mxGeometry>
        </mxCell>
        <mxCell id="RLHbCU7XjAbYTLyCm93H-2" value="" style="endArrow=none;html=1;strokeWidth=3;exitX=1;exitY=0;exitDx=0;exitDy=0;strokeColor=#CCCCCC;" parent="sbYHViqBqOkO2JZsujo5-1" edge="1">
          <mxGeometry width="50" height="50" relative="1" as="geometry">
            <mxPoint x="1" y="279.9999999999999" as="sourcePoint" />
            <mxPoint x="718" y="279.0000000000001" as="targetPoint" />
          </mxGeometry>
        </mxCell>
        <mxCell id="RLHbCU7XjAbYTLyCm93H-3" value="&lt;font style=&quot;font-size: 15px&quot;&gt;&lt;b&gt;Legend&lt;/b&gt;&lt;br&gt;&lt;/font&gt;" style="rounded=0;whiteSpace=wrap;html=1;rotation=-90;fillColor=#CCCCCC;strokeColor=none;" parent="sbYHViqBqOkO2JZsujo5-1" vertex="1">
          <mxGeometry x="-57.25" y="510.75" width="136.5" height="20" as="geometry" />
        </mxCell>
        <mxCell id="RLHbCU7XjAbYTLyCm93H-4" value="&lt;font style=&quot;font-size: 15px&quot;&gt;&lt;b&gt;Freshwater Adult&lt;/b&gt;&lt;br&gt;&lt;/font&gt;" style="rounded=0;whiteSpace=wrap;html=1;rotation=-90;fillColor=#CCCCCC;strokeColor=none;" parent="sbYHViqBqOkO2JZsujo5-1" vertex="1">
          <mxGeometry x="-74" y="359" width="170" height="20" as="geometry" />
        </mxCell>
        <mxCell id="RLHbCU7XjAbYTLyCm93H-5" value="&lt;font style=&quot;font-size: 15px&quot;&gt;&lt;b&gt;Ocean Juvenile&lt;/b&gt;&lt;br&gt;&lt;/font&gt;" style="rounded=0;whiteSpace=wrap;html=1;rotation=-90;fillColor=#CCCCCC;strokeColor=none;" parent="sbYHViqBqOkO2JZsujo5-1" vertex="1">
          <mxGeometry x="-52.5" y="211.5" width="127" height="20" as="geometry" />
        </mxCell>
        <mxCell id="RLHbCU7XjAbYTLyCm93H-6" value="&lt;font style=&quot;font-size: 15px&quot;&gt;&lt;b&gt;Freshwater Juvenile&amp;nbsp;&lt;/b&gt;&lt;br&gt;&lt;/font&gt;" style="rounded=0;whiteSpace=wrap;html=1;rotation=-90;fillColor=#CCCCCC;strokeColor=none;" parent="sbYHViqBqOkO2JZsujo5-1" vertex="1">
          <mxGeometry x="-68.5" y="70.5" width="159" height="20" as="geometry" />
        </mxCell>
        <mxCell id="RLHbCU7XjAbYTLyCm93H-7" value="" style="endArrow=none;html=1;strokeWidth=3;exitX=0;exitY=0;exitDx=0;exitDy=0;strokeColor=#CCCCCC;" parent="sbYHViqBqOkO2JZsujo5-1" source="RLHbCU7XjAbYTLyCm93H-6" edge="1">
          <mxGeometry width="50" height="50" relative="1" as="geometry">
            <mxPoint x="81" y="160" as="sourcePoint" />
            <mxPoint x="718" y="160" as="targetPoint" />
          </mxGeometry>
        </mxCell>
        <mxCell id="RLHbCU7XjAbYTLyCm93H-8" value="" style="endArrow=none;html=1;strokeWidth=3;exitX=0;exitY=0;exitDx=0;exitDy=0;strokeColor=#CCCCCC;" parent="sbYHViqBqOkO2JZsujo5-1" edge="1">
          <mxGeometry width="50" height="50" relative="1" as="geometry">
            <mxPoint x="1" y="453" as="sourcePoint" />
            <mxPoint x="718" y="453" as="targetPoint" />
          </mxGeometry>
        </mxCell>
        <mxCell id="RLHbCU7XjAbYTLyCm93H-9" value="" style="edgeStyle=orthogonalEdgeStyle;rounded=0;orthogonalLoop=1;jettySize=auto;html=1;dashed=1;strokeColor=#3399FF;exitX=0.5;exitY=1;exitDx=0;exitDy=0;dashPattern=1 2;entryX=0;entryY=0.75;entryDx=0;entryDy=0;strokeWidth=1.5;" parent="sbYHViqBqOkO2JZsujo5-1" source="RLHbCU7XjAbYTLyCm93H-113" target="RLHbCU7XjAbYTLyCm93H-11" edge="1">
          <mxGeometry relative="1" as="geometry">
            <mxPoint x="356" y="130" as="targetPoint" />
            <Array as="points">
              <mxPoint x="198" y="130" />
              <mxPoint x="358" y="130" />
              <mxPoint x="358" y="113" />
            </Array>
          </mxGeometry>
        </mxCell>
        <mxCell id="RLHbCU7XjAbYTLyCm93H-10" value="Total Eggs" style="rounded=1;whiteSpace=wrap;html=1;strokeWidth=1.5;" parent="sbYHViqBqOkO2JZsujo5-1" vertex="1">
          <mxGeometry x="31" y="66" width="60" height="30" as="geometry" />
        </mxCell>
        <mxCell id="RLHbCU7XjAbYTLyCm93H-11" value="Smolt&lt;font size=&quot;1&quot;&gt;&lt;br&gt;(Spring Migrants)&lt;/font&gt;" style="whiteSpace=wrap;html=1;rounded=1;strokeWidth=1.5;strokeColor=#3399FF;" parent="sbYHViqBqOkO2JZsujo5-1" vertex="1">
          <mxGeometry x="407" y="90" width="80" height="30" as="geometry" />
        </mxCell>
        <mxCell id="RLHbCU7XjAbYTLyCm93H-12" value="Smolt&lt;font size=&quot;1&quot;&gt;&lt;br&gt;(Fall Migrants)&lt;/font&gt;" style="whiteSpace=wrap;html=1;rounded=1;strokeColor=#3399FF;strokeWidth=1.5;" parent="sbYHViqBqOkO2JZsujo5-1" vertex="1">
          <mxGeometry x="407" y="39" width="80" height="30" as="geometry" />
        </mxCell>
        <mxCell id="RLHbCU7XjAbYTLyCm93H-13" value="Smolt&lt;font size=&quot;1&quot;&gt;&lt;br&gt;(Hatchery Origin)&lt;/font&gt;" style="whiteSpace=wrap;html=1;rounded=1;strokeWidth=1.5;" parent="sbYHViqBqOkO2JZsujo5-1" vertex="1">
          <mxGeometry x="407" y="125" width="80" height="30" as="geometry" />
        </mxCell>
        <mxCell id="RLHbCU7XjAbYTLyCm93H-14" value="Smolt at LGR&lt;font size=&quot;1&quot;&gt;&lt;br&gt;(Natural Origin)&lt;/font&gt;" style="whiteSpace=wrap;html=1;rounded=1;strokeWidth=1.5;" parent="sbYHViqBqOkO2JZsujo5-1" vertex="1">
          <mxGeometry x="541" y="65" width="80" height="30" as="geometry" />
        </mxCell>
        <mxCell id="RLHbCU7XjAbYTLyCm93H-16" value="" style="endArrow=classic;html=1;strokeWidth=1.5;entryX=0.007;entryY=0.331;entryDx=0;entryDy=0;entryPerimeter=0;" parent="sbYHViqBqOkO2JZsujo5-1" target="RLHbCU7XjAbYTLyCm93H-113" edge="1">
          <mxGeometry relative="1" as="geometry">
            <mxPoint x="91" y="75" as="sourcePoint" />
            <mxPoint x="141" y="75" as="targetPoint" />
          </mxGeometry>
        </mxCell>
        <mxCell id="RLHbCU7XjAbYTLyCm93H-17" value="" style="endArrow=classic;html=1;strokeWidth=1.5;dashed=1;exitX=1;exitY=0.75;exitDx=0;exitDy=0;entryX=0;entryY=0.5;entryDx=0;entryDy=0;" parent="sbYHViqBqOkO2JZsujo5-1" source="RLHbCU7XjAbYTLyCm93H-113" target="RLHbCU7XjAbYTLyCm93H-112" edge="1">
          <mxGeometry relative="1" as="geometry">
            <mxPoint x="191" y="80" as="sourcePoint" />
            <mxPoint x="231" y="80" as="targetPoint" />
          </mxGeometry>
        </mxCell>
        <mxCell id="RLHbCU7XjAbYTLyCm93H-18" value="" style="endArrow=classic;html=1;dashed=1;strokeColor=#000000;strokeWidth=1.5;entryX=0;entryY=0.5;entryDx=0;entryDy=0;exitX=1;exitY=0.25;exitDx=0;exitDy=0;" parent="sbYHViqBqOkO2JZsujo5-1" source="RLHbCU7XjAbYTLyCm93H-113" target="RLHbCU7XjAbYTLyCm93H-110" edge="1">
          <mxGeometry width="50" height="50" relative="1" as="geometry">
            <mxPoint x="191" y="80" as="sourcePoint" />
            <mxPoint x="221" y="50" as="targetPoint" />
          </mxGeometry>
        </mxCell>
        <mxCell id="RLHbCU7XjAbYTLyCm93H-19" value="&lt;font style=&quot;font-size: 10px&quot;&gt;&lt;i&gt;Parr Recruitment Mediated by Eggs/WUL&lt;/i&gt;&lt;/font&gt;" style="text;html=1;strokeColor=none;fillColor=none;align=center;verticalAlign=middle;whiteSpace=wrap;rounded=0;glass=1;dashed=1;" parent="sbYHViqBqOkO2JZsujo5-1" vertex="1">
          <mxGeometry x="100.75" y="34" width="85" height="30" as="geometry" />
        </mxCell>
        <mxCell id="RLHbCU7XjAbYTLyCm93H-20" value="" style="endArrow=classic;html=1;strokeWidth=1.5;exitX=1;exitY=0.5;exitDx=0;exitDy=0;entryX=-0.003;entryY=0.433;entryDx=0;entryDy=0;strokeColor=#3399FF;entryPerimeter=0;" parent="sbYHViqBqOkO2JZsujo5-1" target="RLHbCU7XjAbYTLyCm93H-11" edge="1">
          <mxGeometry relative="1" as="geometry">
            <mxPoint x="331" y="103" as="sourcePoint" />
            <mxPoint x="381" y="103" as="targetPoint" />
          </mxGeometry>
        </mxCell>
        <mxCell id="RLHbCU7XjAbYTLyCm93H-21" value="" style="endArrow=classic;html=1;strokeWidth=1.5;exitX=1;exitY=0.49;exitDx=0;exitDy=0;exitPerimeter=0;entryX=0;entryY=0.323;entryDx=0;entryDy=0;strokeColor=#3399FF;entryPerimeter=0;" parent="sbYHViqBqOkO2JZsujo5-1" target="RLHbCU7XjAbYTLyCm93H-12" edge="1">
          <mxGeometry relative="1" as="geometry">
            <mxPoint x="331" y="48.700000000000045" as="sourcePoint" />
            <mxPoint x="381" y="49" as="targetPoint" />
          </mxGeometry>
        </mxCell>
        <mxCell id="RLHbCU7XjAbYTLyCm93H-22" value="" style="endArrow=classic;html=1;strokeWidth=1.5;exitX=1;exitY=0.5;exitDx=0;exitDy=0;entryX=-0.005;entryY=0.884;entryDx=0;entryDy=0;entryPerimeter=0;strokeColor=#3399FF;" parent="sbYHViqBqOkO2JZsujo5-1" source="RLHbCU7XjAbYTLyCm93H-11" target="RLHbCU7XjAbYTLyCm93H-14" edge="1">
          <mxGeometry relative="1" as="geometry">
            <mxPoint x="471" y="80" as="sourcePoint" />
            <mxPoint x="510" y="92" as="targetPoint" />
          </mxGeometry>
        </mxCell>
        <mxCell id="RLHbCU7XjAbYTLyCm93H-23" value="" style="endArrow=classic;html=1;strokeWidth=1.5;entryX=0;entryY=0.5;entryDx=0;entryDy=0;exitX=1;exitY=0.5;exitDx=0;exitDy=0;" parent="sbYHViqBqOkO2JZsujo5-1" source="RLHbCU7XjAbYTLyCm93H-13" target="RLHbCU7XjAbYTLyCm93H-26" edge="1">
          <mxGeometry relative="1" as="geometry">
            <mxPoint x="461" y="143" as="sourcePoint" />
            <mxPoint x="511" y="115" as="targetPoint" />
          </mxGeometry>
        </mxCell>
        <mxCell id="RLHbCU7XjAbYTLyCm93H-24" value="" style="endArrow=classic;html=1;strokeWidth=1.5;exitX=1;exitY=0.5;exitDx=0;exitDy=0;entryX=-0.002;entryY=0.111;entryDx=0;entryDy=0;entryPerimeter=0;strokeColor=#3399FF;" parent="sbYHViqBqOkO2JZsujo5-1" source="RLHbCU7XjAbYTLyCm93H-12" target="RLHbCU7XjAbYTLyCm93H-14" edge="1">
          <mxGeometry relative="1" as="geometry">
            <mxPoint x="471" y="44.70999999999999" as="sourcePoint" />
            <mxPoint x="510" y="68" as="targetPoint" />
          </mxGeometry>
        </mxCell>
        <mxCell id="RLHbCU7XjAbYTLyCm93H-25" value="&lt;font style=&quot;font-size: 10px&quot;&gt;&lt;i&gt;Growth Mediated by Eggs/WUL&lt;/i&gt;&lt;/font&gt;" style="text;html=1;strokeColor=none;fillColor=none;align=center;verticalAlign=middle;whiteSpace=wrap;rounded=0;glass=1;dashed=1;" parent="sbYHViqBqOkO2JZsujo5-1" vertex="1">
          <mxGeometry x="104" y="103" width="79" height="30" as="geometry" />
        </mxCell>
        <mxCell id="RLHbCU7XjAbYTLyCm93H-26" value="Smolt at LGR&lt;font size=&quot;1&quot;&gt;&lt;br&gt;(Hatchery Origin)&lt;/font&gt;" style="whiteSpace=wrap;html=1;rounded=1;strokeWidth=1.5;" parent="sbYHViqBqOkO2JZsujo5-1" vertex="1">
          <mxGeometry x="541" y="120" width="80" height="30" as="geometry" />
        </mxCell>
        <mxCell id="RLHbCU7XjAbYTLyCm93H-27" value="" style="endArrow=classic;html=1;strokeWidth=1.5;exitX=1;exitY=0.5;exitDx=0;exitDy=0;rounded=0;entryX=0.75;entryY=0;entryDx=0;entryDy=0;" parent="sbYHViqBqOkO2JZsujo5-1" source="RLHbCU7XjAbYTLyCm93H-14" target="RLHbCU7XjAbYTLyCm93H-31" edge="1">
          <mxGeometry relative="1" as="geometry">
            <mxPoint x="591" y="60" as="sourcePoint" />
            <mxPoint x="70" y="186" as="targetPoint" />
            <Array as="points">
              <mxPoint x="694" y="80" />
              <mxPoint x="694" y="186" />
              <mxPoint x="99" y="186" />
            </Array>
          </mxGeometry>
        </mxCell>
        <mxCell id="RLHbCU7XjAbYTLyCm93H-28" value="" style="endArrow=classic;html=1;strokeWidth=1.5;rounded=0;entryX=0.5;entryY=0;entryDx=0;entryDy=0;exitX=1;exitY=0.5;exitDx=0;exitDy=0;" parent="sbYHViqBqOkO2JZsujo5-1" source="RLHbCU7XjAbYTLyCm93H-26" target="RLHbCU7XjAbYTLyCm93H-31" edge="1">
          <mxGeometry relative="1" as="geometry">
            <mxPoint x="606" y="125" as="sourcePoint" />
            <mxPoint x="59" y="180" as="targetPoint" />
            <Array as="points">
              <mxPoint x="637" y="135" />
              <mxPoint x="675" y="135" />
              <mxPoint x="675" y="172" />
              <mxPoint x="76" y="172" />
            </Array>
          </mxGeometry>
        </mxCell>
        <mxCell id="RLHbCU7XjAbYTLyCm93H-29" value="&lt;span style=&quot;font-size: 10px&quot;&gt;&lt;i&gt;Migration Through Hydrosystem&lt;/i&gt;&lt;/span&gt;" style="text;html=1;strokeColor=none;fillColor=none;align=center;verticalAlign=middle;whiteSpace=wrap;rounded=0;glass=1;dashed=1;" parent="sbYHViqBqOkO2JZsujo5-1" vertex="1">
          <mxGeometry x="626" y="90.5" width="64" height="30" as="geometry" />
        </mxCell>
        <mxCell id="RLHbCU7XjAbYTLyCm93H-30" value="" style="endArrow=classic;html=1;strokeWidth=1.5;exitX=0.5;exitY=0;exitDx=0;exitDy=0;rounded=0;entryX=0.5;entryY=0;entryDx=0;entryDy=0;" parent="sbYHViqBqOkO2JZsujo5-1" source="RLHbCU7XjAbYTLyCm93H-110" target="RLHbCU7XjAbYTLyCm93H-14" edge="1">
          <mxGeometry relative="1" as="geometry">
            <mxPoint x="291" y="18" as="sourcePoint" />
            <mxPoint x="551" y="18" as="targetPoint" />
            <Array as="points">
              <mxPoint x="309" y="30" />
              <mxPoint x="581" y="30" />
            </Array>
          </mxGeometry>
        </mxCell>
        <mxCell id="RLHbCU7XjAbYTLyCm93H-31" value="Age-2 Juvenile&lt;font size=&quot;1&quot;&gt;&lt;br&gt;(By Origin)&lt;/font&gt;" style="whiteSpace=wrap;html=1;rounded=1;strokeWidth=1.5;" parent="sbYHViqBqOkO2JZsujo5-1" vertex="1">
          <mxGeometry x="31" y="206" width="90" height="30" as="geometry" />
        </mxCell>
        <mxCell id="RLHbCU7XjAbYTLyCm93H-32" value="Age-3 Juvenile&lt;font size=&quot;1&quot;&gt;&lt;br&gt;(By Origin)&lt;/font&gt;" style="whiteSpace=wrap;html=1;rounded=1;strokeWidth=1.5;" parent="sbYHViqBqOkO2JZsujo5-1" vertex="1">
          <mxGeometry x="176" y="206" width="90" height="30" as="geometry" />
        </mxCell>
        <mxCell id="RLHbCU7XjAbYTLyCm93H-33" value="Age-4 Juvenile&lt;font size=&quot;1&quot;&gt;&lt;br&gt;(By Origin)&lt;/font&gt;" style="whiteSpace=wrap;html=1;rounded=1;strokeWidth=1.5;" parent="sbYHViqBqOkO2JZsujo5-1" vertex="1">
          <mxGeometry x="316" y="206" width="90" height="30" as="geometry" />
        </mxCell>
        <mxCell id="RLHbCU7XjAbYTLyCm93H-36" value="" style="endArrow=classic;html=1;dashed=1;strokeColor=#000000;strokeWidth=1.5;entryX=0.75;entryY=0;entryDx=0;entryDy=0;exitX=0.5;exitY=1;exitDx=0;exitDy=0;" parent="sbYHViqBqOkO2JZsujo5-1" source="RLHbCU7XjAbYTLyCm93H-32" target="RLHbCU7XjAbYTLyCm93H-117" edge="1">
          <mxGeometry width="50" height="50" relative="1" as="geometry">
            <mxPoint x="271" y="239.5" as="sourcePoint" />
            <mxPoint x="321" y="239.5" as="targetPoint" />
          </mxGeometry>
        </mxCell>
        <mxCell id="RLHbCU7XjAbYTLyCm93H-37" value="" style="endArrow=classic;html=1;dashed=1;strokeColor=#000000;strokeWidth=1.5;entryX=0.75;entryY=0;entryDx=0;entryDy=0;exitX=0.5;exitY=1;exitDx=0;exitDy=0;" parent="sbYHViqBqOkO2JZsujo5-1" source="RLHbCU7XjAbYTLyCm93H-33" target="RLHbCU7XjAbYTLyCm93H-118" edge="1">
          <mxGeometry width="50" height="50" relative="1" as="geometry">
            <mxPoint x="405.71000000000004" y="220" as="sourcePoint" />
            <mxPoint x="405.71000000000004" y="260" as="targetPoint" />
          </mxGeometry>
        </mxCell>
        <mxCell id="RLHbCU7XjAbYTLyCm93H-38" value="" style="endArrow=classic;html=1;dashed=1;strokeColor=#000000;strokeWidth=1.5;exitX=0.554;exitY=0.968;exitDx=0;exitDy=0;exitPerimeter=0;entryX=0.75;entryY=0;entryDx=0;entryDy=0;" parent="sbYHViqBqOkO2JZsujo5-1" source="RLHbCU7XjAbYTLyCm93H-34" target="RLHbCU7XjAbYTLyCm93H-119" edge="1">
          <mxGeometry width="50" height="50" relative="1" as="geometry">
            <mxPoint x="551" y="225" as="sourcePoint" />
            <mxPoint x="551" y="256" as="targetPoint" />
          </mxGeometry>
        </mxCell>
        <mxCell id="RLHbCU7XjAbYTLyCm93H-39" value="" style="endArrow=classic;html=1;strokeColor=#000000;strokeWidth=1.5;entryX=0;entryY=0.5;entryDx=0;entryDy=0;exitX=1;exitY=0.5;exitDx=0;exitDy=0;" parent="sbYHViqBqOkO2JZsujo5-1" source="RLHbCU7XjAbYTLyCm93H-31" target="RLHbCU7XjAbYTLyCm93H-32" edge="1">
          <mxGeometry width="50" height="50" relative="1" as="geometry">
            <mxPoint x="261.0000000000001" y="240" as="sourcePoint" />
            <mxPoint x="316" y="239.71" as="targetPoint" />
          </mxGeometry>
        </mxCell>
        <mxCell id="RLHbCU7XjAbYTLyCm93H-40" value="" style="endArrow=classic;html=1;strokeColor=#000000;strokeWidth=1.5;entryX=0;entryY=0.5;entryDx=0;entryDy=0;exitX=1;exitY=0.5;exitDx=0;exitDy=0;" parent="sbYHViqBqOkO2JZsujo5-1" source="RLHbCU7XjAbYTLyCm93H-32" target="RLHbCU7XjAbYTLyCm93H-33" edge="1">
          <mxGeometry width="50" height="50" relative="1" as="geometry">
            <mxPoint x="266" y="221" as="sourcePoint" />
            <mxPoint x="316" y="186" as="targetPoint" />
          </mxGeometry>
        </mxCell>
        <mxCell id="RLHbCU7XjAbYTLyCm93H-41" value="" style="endArrow=classic;html=1;strokeColor=#000000;strokeWidth=1.5;exitX=1;exitY=0.5;exitDx=0;exitDy=0;entryX=0;entryY=0.5;entryDx=0;entryDy=0;" parent="sbYHViqBqOkO2JZsujo5-1" source="RLHbCU7XjAbYTLyCm93H-33" target="RLHbCU7XjAbYTLyCm93H-34" edge="1">
          <mxGeometry width="50" height="50" relative="1" as="geometry">
            <mxPoint x="406" y="220.71" as="sourcePoint" />
            <mxPoint x="456" y="221" as="targetPoint" />
          </mxGeometry>
        </mxCell>
        <mxCell id="RLHbCU7XjAbYTLyCm93H-42" value="&lt;span style=&quot;font-size: 10px&quot;&gt;&lt;i&gt;1st Winter at Sea&lt;br&gt;&lt;/i&gt;&lt;/span&gt;" style="text;html=1;strokeColor=none;fillColor=none;align=center;verticalAlign=middle;whiteSpace=wrap;rounded=0;glass=1;dashed=1;" parent="sbYHViqBqOkO2JZsujo5-1" vertex="1">
          <mxGeometry x="120" y="191" width="50" height="28" as="geometry" />
        </mxCell>
        <mxCell id="RLHbCU7XjAbYTLyCm93H-43" value="&lt;span style=&quot;font-size: 10px&quot;&gt;&lt;i&gt;2nd Winter at Sea&lt;br&gt;&lt;/i&gt;&lt;/span&gt;" style="text;html=1;strokeColor=none;fillColor=none;align=center;verticalAlign=middle;whiteSpace=wrap;rounded=0;glass=1;dashed=1;" parent="sbYHViqBqOkO2JZsujo5-1" vertex="1">
          <mxGeometry x="261" y="190" width="60" height="30" as="geometry" />
        </mxCell>
        <mxCell id="RLHbCU7XjAbYTLyCm93H-44" value="&lt;span style=&quot;font-size: 10px&quot;&gt;&lt;i&gt;3rd Winter at Sea&lt;br&gt;&lt;/i&gt;&lt;/span&gt;" style="text;html=1;strokeColor=none;fillColor=none;align=center;verticalAlign=middle;whiteSpace=wrap;rounded=0;glass=1;dashed=1;" parent="sbYHViqBqOkO2JZsujo5-1" vertex="1">
          <mxGeometry x="402" y="189" width="54" height="30" as="geometry" />
        </mxCell>
        <mxCell id="RLHbCU7XjAbYTLyCm93H-45" value="&lt;span style=&quot;font-size: 10px&quot;&gt;&lt;i&gt;Option to Mature&lt;br&gt;&lt;/i&gt;&lt;/span&gt;" style="text;html=1;strokeColor=none;fillColor=none;align=center;verticalAlign=middle;whiteSpace=wrap;rounded=0;glass=1;dashed=1;" parent="sbYHViqBqOkO2JZsujo5-1" vertex="1">
          <mxGeometry x="189" y="246" width="60" height="30" as="geometry" />
        </mxCell>
        <mxCell id="RLHbCU7XjAbYTLyCm93H-46" value="&lt;span style=&quot;font-size: 10px&quot;&gt;&lt;i&gt;Option to Mature&lt;br&gt;&lt;/i&gt;&lt;/span&gt;" style="text;html=1;strokeColor=none;fillColor=none;align=center;verticalAlign=middle;whiteSpace=wrap;rounded=0;glass=1;dashed=1;" parent="sbYHViqBqOkO2JZsujo5-1" vertex="1">
          <mxGeometry x="327" y="246" width="60" height="30" as="geometry" />
        </mxCell>
        <mxCell id="RLHbCU7XjAbYTLyCm93H-47" value="&lt;span style=&quot;font-size: 10px&quot;&gt;&lt;i&gt;All Mature&lt;br&gt;&lt;/i&gt;&lt;/span&gt;" style="text;html=1;strokeColor=none;fillColor=none;align=center;verticalAlign=middle;whiteSpace=wrap;rounded=0;glass=1;dashed=1;" parent="sbYHViqBqOkO2JZsujo5-1" vertex="1">
          <mxGeometry x="468" y="245" width="43" height="30" as="geometry" />
        </mxCell>
        <mxCell id="RLHbCU7XjAbYTLyCm93H-48" value="Adult in Tributary&lt;font size=&quot;1&quot;&gt;&lt;br&gt;(By Age/Origin)&lt;/font&gt;" style="whiteSpace=wrap;html=1;rounded=1;strokeWidth=1.5;" parent="sbYHViqBqOkO2JZsujo5-1" vertex="1">
          <mxGeometry x="198" y="384" width="112" height="30" as="geometry" />
        </mxCell>
        <mxCell id="RLHbCU7XjAbYTLyCm93H-49" value="" style="endArrow=classic;html=1;strokeColor=#000000;strokeWidth=1.5;exitX=1;exitY=0.5;exitDx=0;exitDy=0;entryX=0;entryY=0.5;entryDx=0;entryDy=0;" parent="sbYHViqBqOkO2JZsujo5-1" target="RLHbCU7XjAbYTLyCm93H-48" edge="1">
          <mxGeometry width="50" height="50" relative="1" as="geometry">
            <mxPoint x="131" y="399" as="sourcePoint" />
            <mxPoint x="171.0000000000001" y="398.9999999999999" as="targetPoint" />
          </mxGeometry>
        </mxCell>
        <mxCell id="RLHbCU7XjAbYTLyCm93H-50" value="Adult on Spawning Grounds&lt;font size=&quot;1&quot;&gt;&lt;br&gt;(By Age/Origin)&lt;/font&gt;" style="whiteSpace=wrap;html=1;rounded=1;gradientColor=#ffffff;strokeWidth=1.5;" parent="sbYHViqBqOkO2JZsujo5-1" vertex="1">
          <mxGeometry x="370" y="384" width="160" height="30" as="geometry" />
        </mxCell>
        <mxCell id="RLHbCU7XjAbYTLyCm93H-51" value="" style="endArrow=classic;html=1;strokeColor=#000000;strokeWidth=1.5;entryX=0;entryY=0.5;entryDx=0;entryDy=0;exitX=1;exitY=0.5;exitDx=0;exitDy=0;" parent="sbYHViqBqOkO2JZsujo5-1" source="RLHbCU7XjAbYTLyCm93H-48" target="RLHbCU7XjAbYTLyCm93H-50" edge="1">
          <mxGeometry width="50" height="50" relative="1" as="geometry">
            <mxPoint x="291" y="409" as="sourcePoint" />
            <mxPoint x="326.0000000000001" y="398.6599999999999" as="targetPoint" />
          </mxGeometry>
        </mxCell>
        <mxCell id="RLHbCU7XjAbYTLyCm93H-52" value="Adult Spawner&lt;font size=&quot;1&quot;&gt;&lt;br&gt;(By Age/Origin)&lt;/font&gt;" style="whiteSpace=wrap;html=1;rounded=1;gradientColor=#ffffff;strokeWidth=1.5;" parent="sbYHViqBqOkO2JZsujo5-1" vertex="1">
          <mxGeometry x="591" y="385" width="110" height="30" as="geometry" />
        </mxCell>
        <mxCell id="RLHbCU7XjAbYTLyCm93H-53" value="" style="endArrow=classic;html=1;strokeColor=#000000;strokeWidth=1.5;exitX=1;exitY=0.5;exitDx=0;exitDy=0;entryX=0;entryY=0.5;entryDx=0;entryDy=0;" parent="sbYHViqBqOkO2JZsujo5-1" source="RLHbCU7XjAbYTLyCm93H-50" target="RLHbCU7XjAbYTLyCm93H-52" edge="1">
          <mxGeometry width="50" height="50" relative="1" as="geometry">
            <mxPoint x="506" y="398.6599999999999" as="sourcePoint" />
            <mxPoint x="521" y="419" as="targetPoint" />
          </mxGeometry>
        </mxCell>
        <mxCell id="RLHbCU7XjAbYTLyCm93H-54" value="" style="endArrow=classic;html=1;strokeColor=#000000;strokeWidth=1.5;exitX=0.5;exitY=1;exitDx=0;exitDy=0;rounded=0;entryX=0.5;entryY=0;entryDx=0;entryDy=0;dashed=1;dashPattern=8 8;" parent="sbYHViqBqOkO2JZsujo5-1" source="RLHbCU7XjAbYTLyCm93H-52" target="RLHbCU7XjAbYTLyCm93H-10" edge="1">
          <mxGeometry width="50" height="50" relative="1" as="geometry">
            <mxPoint x="597" y="465" as="sourcePoint" />
            <mxPoint x="26" y="10" as="targetPoint" />
            <Array as="points">
              <mxPoint x="647" y="447" />
              <mxPoint x="24" y="447" />
              <mxPoint x="24" y="48" />
              <mxPoint x="61" y="48" />
            </Array>
          </mxGeometry>
        </mxCell>
        <mxCell id="RLHbCU7XjAbYTLyCm93H-55" value="&lt;font style=&quot;font-size: 10px&quot;&gt;&lt;i&gt;Migration Through Hydrosystem&lt;/i&gt;&lt;/font&gt;" style="text;html=1;strokeColor=none;fillColor=none;align=center;verticalAlign=middle;whiteSpace=wrap;rounded=0;glass=1;dashed=1;" parent="sbYHViqBqOkO2JZsujo5-1" vertex="1">
          <mxGeometry x="102" y="414" width="87" height="30" as="geometry" />
        </mxCell>
        <mxCell id="RLHbCU7XjAbYTLyCm93H-57" value="&lt;font style=&quot;font-size: 10px&quot;&gt;&lt;i&gt;Pre-Spawn Survival&lt;/i&gt;&lt;/font&gt;" style="text;html=1;strokeColor=none;fillColor=none;align=center;verticalAlign=middle;whiteSpace=wrap;rounded=0;glass=1;dashed=1;" parent="sbYHViqBqOkO2JZsujo5-1" vertex="1">
          <mxGeometry x="521" y="359" width="70" height="30" as="geometry" />
        </mxCell>
        <mxCell id="RLHbCU7XjAbYTLyCm93H-58" value="" style="endArrow=classic;html=1;strokeWidth=1;" parent="sbYHViqBqOkO2JZsujo5-1" edge="1">
          <mxGeometry width="50" height="50" relative="1" as="geometry">
            <mxPoint x="29.999999999999886" y="492.9000000000001" as="sourcePoint" />
            <mxPoint x="64.00000000000011" y="493.0999999999999" as="targetPoint" />
          </mxGeometry>
        </mxCell>
        <mxCell id="RLHbCU7XjAbYTLyCm93H-59" value="&lt;font style=&quot;font-size: 10px&quot;&gt;Survival rate&lt;/font&gt;" style="text;html=1;strokeColor=none;fillColor=none;align=left;verticalAlign=middle;whiteSpace=wrap;rounded=0;glass=1;dashed=1;fontSize=10;fontStyle=2" parent="sbYHViqBqOkO2JZsujo5-1" vertex="1">
          <mxGeometry x="66.25" y="486" width="154" height="16" as="geometry" />
        </mxCell>
        <mxCell id="RLHbCU7XjAbYTLyCm93H-61" value="&lt;font style=&quot;font-size: 10px&quot;&gt;Apportionment rate&lt;/font&gt;" style="text;html=1;strokeColor=none;fillColor=none;align=left;verticalAlign=middle;whiteSpace=wrap;rounded=0;glass=1;dashed=1;fontSize=10;fontStyle=2" parent="sbYHViqBqOkO2JZsujo5-1" vertex="1">
          <mxGeometry x="66.25" y="502" width="126" height="16" as="geometry" />
        </mxCell>
        <mxCell id="RLHbCU7XjAbYTLyCm93H-62" value="" style="whiteSpace=wrap;html=1;rounded=1;" parent="sbYHViqBqOkO2JZsujo5-1" vertex="1">
          <mxGeometry x="29" y="470" width="35" height="15" as="geometry" />
        </mxCell>
        <mxCell id="RLHbCU7XjAbYTLyCm93H-63" value="&lt;font style=&quot;font-size: 10px&quot;&gt;Life stage/state&lt;/font&gt;" style="text;html=1;strokeColor=none;fillColor=none;align=left;verticalAlign=middle;whiteSpace=wrap;rounded=0;glass=1;dashed=1;fontSize=10;fontStyle=2" parent="sbYHViqBqOkO2JZsujo5-1" vertex="1">
          <mxGeometry x="66.25" y="470.5" width="154" height="16" as="geometry" />
        </mxCell>
        <mxCell id="RLHbCU7XjAbYTLyCm93H-66" value="&lt;font style=&quot;font-size: 10px&quot;&gt;&lt;i&gt;Weir Sampling&amp;nbsp;&amp;nbsp;&lt;/i&gt;&lt;/font&gt;" style="text;html=1;strokeColor=none;fillColor=none;align=center;verticalAlign=middle;whiteSpace=wrap;rounded=0;glass=1;dashed=1;" parent="sbYHViqBqOkO2JZsujo5-1" vertex="1">
          <mxGeometry x="309.88" y="420" width="59.25" height="16" as="geometry" />
        </mxCell>
        <mxCell id="RLHbCU7XjAbYTLyCm93H-67" value="&lt;font style=&quot;font-size: 10px&quot;&gt;&lt;i&gt;Carcass Sampling&lt;/i&gt;&lt;/font&gt;" style="text;html=1;strokeColor=none;fillColor=none;align=center;verticalAlign=middle;whiteSpace=wrap;rounded=0;glass=1;dashed=1;" parent="sbYHViqBqOkO2JZsujo5-1" vertex="1">
          <mxGeometry x="655" y="355" width="55" height="24" as="geometry" />
        </mxCell>
        <mxCell id="RLHbCU7XjAbYTLyCm93H-68" value="" style="endArrow=classic;html=1;strokeColor=#000000;strokeWidth=1.5;exitX=0.5;exitY=0;exitDx=0;exitDy=0;entryX=0.75;entryY=0;entryDx=0;entryDy=0;rounded=0;" parent="sbYHViqBqOkO2JZsujo5-1" source="RLHbCU7XjAbYTLyCm93H-113" target="RLHbCU7XjAbYTLyCm93H-14" edge="1">
          <mxGeometry width="50" height="50" relative="1" as="geometry">
            <mxPoint x="169" y="65" as="sourcePoint" />
            <mxPoint x="218.5" y="15" as="targetPoint" />
            <Array as="points">
              <mxPoint x="198" y="20" />
              <mxPoint x="601" y="20" />
            </Array>
          </mxGeometry>
        </mxCell>
        <mxCell id="RLHbCU7XjAbYTLyCm93H-69" value="&lt;font style=&quot;font-size: 10px&quot;&gt;1&lt;/font&gt;" style="ellipse;whiteSpace=wrap;html=1;aspect=fixed;rounded=1;glass=1;fillColor=#FFFFFF;spacing=0;spacingBottom=2;strokeWidth=1.5;" parent="sbYHViqBqOkO2JZsujo5-1" vertex="1">
          <mxGeometry x="189" y="35" width="18" height="18" as="geometry" />
        </mxCell>
        <mxCell id="RLHbCU7XjAbYTLyCm93H-70" value="&lt;font style=&quot;font-size: 10px&quot;&gt;4&lt;/font&gt;" style="ellipse;whiteSpace=wrap;html=1;aspect=fixed;rounded=1;glass=1;fillColor=#FFFFFF;spacing=0;spacingBottom=2;strokeWidth=1.5;" parent="sbYHViqBqOkO2JZsujo5-1" vertex="1">
          <mxGeometry x="572" y="34" width="18" height="18" as="geometry" />
        </mxCell>
        <mxCell id="RLHbCU7XjAbYTLyCm93H-71" value="&lt;font style=&quot;font-size: 10px&quot;&gt;6&lt;/font&gt;" style="ellipse;whiteSpace=wrap;html=1;aspect=fixed;rounded=1;glass=1;fillColor=#FFFFFF;spacing=2;spacingBottom=2;strokeWidth=1.5;" parent="sbYHViqBqOkO2JZsujo5-1" vertex="1">
          <mxGeometry x="401" y="83" width="18" height="18" as="geometry" />
        </mxCell>
        <mxCell id="RLHbCU7XjAbYTLyCm93H-72" value="&lt;font style=&quot;font-size: 10px&quot;&gt;9&lt;/font&gt;" style="ellipse;whiteSpace=wrap;html=1;aspect=fixed;rounded=1;glass=1;fillColor=#FFFFFF;spacing=2;spacingBottom=2;strokeWidth=1.5;" parent="sbYHViqBqOkO2JZsujo5-1" vertex="1">
          <mxGeometry x="400" y="122" width="18" height="18" as="geometry" />
        </mxCell>
        <mxCell id="RLHbCU7XjAbYTLyCm93H-73" value="&lt;font style=&quot;font-size: 10px&quot;&gt;8&lt;/font&gt;" style="ellipse;whiteSpace=wrap;html=1;aspect=fixed;rounded=1;glass=1;fillColor=#FFFFFF;spacing=0;spacingBottom=2;strokeWidth=1.5;" parent="sbYHViqBqOkO2JZsujo5-1" vertex="1">
          <mxGeometry x="505" y="89" width="18" height="18" as="geometry" />
        </mxCell>
        <mxCell id="RLHbCU7XjAbYTLyCm93H-74" value="&lt;font style=&quot;font-size: 10px&quot;&gt;10&lt;/font&gt;" style="ellipse;whiteSpace=wrap;html=1;aspect=fixed;rounded=1;glass=1;fillColor=#FFFFFF;spacing=0;spacingBottom=2;strokeWidth=1.5;" parent="sbYHViqBqOkO2JZsujo5-1" vertex="1">
          <mxGeometry x="505" y="128" width="18" height="18" as="geometry" />
        </mxCell>
        <mxCell id="RLHbCU7XjAbYTLyCm93H-75" value="&lt;font style=&quot;font-size: 10px&quot;&gt;11&lt;/font&gt;" style="ellipse;whiteSpace=wrap;html=1;aspect=fixed;rounded=1;glass=1;fillColor=#FFFFFF;spacing=0;spacingBottom=2;strokeWidth=1.5;" parent="sbYHViqBqOkO2JZsujo5-1" vertex="1">
          <mxGeometry x="685" y="93" width="18" height="18" as="geometry" />
        </mxCell>
        <mxCell id="RLHbCU7XjAbYTLyCm93H-76" value="&lt;font style=&quot;font-size: 10px&quot;&gt;12&lt;/font&gt;" style="ellipse;whiteSpace=wrap;html=1;aspect=fixed;rounded=1;glass=1;fillColor=#FFFFFF;spacing=0;spacingBottom=2;verticalAlign=middle;strokeWidth=1.5;" parent="sbYHViqBqOkO2JZsujo5-1" vertex="1">
          <mxGeometry x="666" y="138" width="18" height="18" as="geometry" />
        </mxCell>
        <mxCell id="RLHbCU7XjAbYTLyCm93H-77" value="&lt;b&gt;Data Sources &lt;/b&gt;&lt;font size=&quot;1&quot;&gt;&lt;i&gt;(&lt;/i&gt;*&lt;i&gt;denotes data sources that do not have uncertainty; all others observed with error)&lt;/i&gt;&lt;/font&gt;" style="text;html=1;resizable=0;autosize=1;align=center;verticalAlign=middle;points=[];fillColor=none;strokeColor=none;rounded=0;glass=1;" parent="sbYHViqBqOkO2JZsujo5-1" vertex="1">
          <mxGeometry x="175.5" y="449" width="465" height="26" as="geometry" />
        </mxCell>
        <mxCell id="RLHbCU7XjAbYTLyCm93H-78" value="(11) PIT tag survival from LGR to BON (natural origin)&lt;br&gt;(12) PIT tag survival from LGR to BON (hatchery origin)&lt;br&gt;(13) *Harvest rate below BON (origin/age-specific)&lt;br&gt;(14) Counts of PIT tagged adults at BON and LGR&lt;br&gt;(15) Total abundance of returning adults to tributary&lt;br&gt;(16) Age/origin composition of returning adults at weir&lt;br&gt;(17) *Adults by age/origin removed at weir or harvested&lt;br&gt;(18) *Pre-spawn survival rates estimated from carcasses&lt;br&gt;(19) Age/origin composition of carcasses&lt;br&gt;(20) *Proportion female and time/age-varying fecundity" style="text;html=1;strokeColor=none;fillColor=none;align=left;verticalAlign=top;whiteSpace=wrap;rounded=0;glass=1;fontSize=10;" parent="sbYHViqBqOkO2JZsujo5-1" vertex="1">
          <mxGeometry x="439" y="461" width="260" height="129" as="geometry" />
        </mxCell>
        <mxCell id="RLHbCU7XjAbYTLyCm93H-79" value="&lt;font style=&quot;font-size: 10px&quot;&gt;14&lt;/font&gt;" style="ellipse;whiteSpace=wrap;html=1;aspect=fixed;rounded=1;glass=1;fillColor=#FFFFFF;spacing=0;spacingBottom=2;spacingLeft=0;strokeWidth=1.5;" parent="sbYHViqBqOkO2JZsujo5-1" vertex="1">
          <mxGeometry x="151" y="390" width="18" height="18" as="geometry" />
        </mxCell>
        <mxCell id="RLHbCU7XjAbYTLyCm93H-80" value="&lt;font style=&quot;font-size: 10px&quot;&gt;15&lt;/font&gt;" style="ellipse;whiteSpace=wrap;html=1;aspect=fixed;rounded=1;glass=1;fillColor=#FFFFFF;spacing=0;spacingBottom=2;spacingLeft=0;strokeWidth=1.5;" parent="sbYHViqBqOkO2JZsujo5-1" vertex="1">
          <mxGeometry x="189" y="375" width="18" height="18" as="geometry" />
        </mxCell>
        <mxCell id="RLHbCU7XjAbYTLyCm93H-81" value="&lt;font style=&quot;font-size: 10px&quot;&gt;16&lt;/font&gt;" style="ellipse;whiteSpace=wrap;html=1;aspect=fixed;rounded=1;glass=1;fillColor=#FFFFFF;spacing=0;spacingBottom=2;spacingLeft=0;strokeWidth=1.5;" parent="sbYHViqBqOkO2JZsujo5-1" vertex="1">
          <mxGeometry x="189" y="405" width="18" height="18" as="geometry" />
        </mxCell>
        <mxCell id="RLHbCU7XjAbYTLyCm93H-82" value="&lt;font style=&quot;font-size: 10px&quot;&gt;18&lt;/font&gt;" style="ellipse;whiteSpace=wrap;html=1;aspect=fixed;rounded=1;glass=1;fillColor=#FFFFFF;spacing=0;spacingBottom=2;spacingLeft=-1;strokeWidth=1.5;" parent="sbYHViqBqOkO2JZsujo5-1" vertex="1">
          <mxGeometry x="545" y="390" width="18" height="18" as="geometry" />
        </mxCell>
        <mxCell id="RLHbCU7XjAbYTLyCm93H-83" value="&lt;font style=&quot;font-size: 10px&quot;&gt;17&lt;/font&gt;" style="ellipse;whiteSpace=wrap;html=1;aspect=fixed;rounded=1;glass=1;fillColor=#FFFFFF;spacing=0;spacingBottom=2;spacingLeft=0;strokeWidth=1.5;" parent="sbYHViqBqOkO2JZsujo5-1" vertex="1">
          <mxGeometry x="328.5" y="390" width="18" height="18" as="geometry" />
        </mxCell>
        <mxCell id="RLHbCU7XjAbYTLyCm93H-84" value="&lt;font style=&quot;font-size: 10px&quot;&gt;19&lt;/font&gt;" style="ellipse;whiteSpace=wrap;html=1;aspect=fixed;rounded=1;glass=1;fillColor=#FFFFFF;spacing=0;spacingBottom=2;strokeWidth=1.5;" parent="sbYHViqBqOkO2JZsujo5-1" vertex="1">
          <mxGeometry x="582" y="376" width="18" height="18" as="geometry" />
        </mxCell>
        <mxCell id="RLHbCU7XjAbYTLyCm93H-86" value="" style="endArrow=classic;html=1;strokeWidth=1;dashed=1;" parent="sbYHViqBqOkO2JZsujo5-1" edge="1">
          <mxGeometry width="50" height="50" relative="1" as="geometry">
            <mxPoint x="29.999999999999886" y="509.9000000000001" as="sourcePoint" />
            <mxPoint x="64.00000000000011" y="510.0999999999999" as="targetPoint" />
          </mxGeometry>
        </mxCell>
        <mxCell id="RLHbCU7XjAbYTLyCm93H-87" value="Adult Above BON&lt;font size=&quot;1&quot;&gt;&lt;br&gt;(By Age/Origin)&lt;/font&gt;" style="whiteSpace=wrap;html=1;rounded=1;strokeWidth=1.5;" parent="sbYHViqBqOkO2JZsujo5-1" vertex="1">
          <mxGeometry x="31" y="385" width="100" height="30" as="geometry" />
        </mxCell>
        <mxCell id="RLHbCU7XjAbYTLyCm93H-88" value="&lt;font style=&quot;font-size: 10px&quot;&gt;&lt;i&gt;Spawning&lt;/i&gt;&lt;/font&gt;" style="text;html=1;strokeColor=none;fillColor=none;align=center;verticalAlign=middle;whiteSpace=wrap;rounded=0;glass=1;dashed=1;" parent="sbYHViqBqOkO2JZsujo5-1" vertex="1">
          <mxGeometry x="578" y="417" width="56" height="24" as="geometry" />
        </mxCell>
        <mxCell id="RLHbCU7XjAbYTLyCm93H-89" value="" style="endArrow=classic;html=1;strokeColor=#000000;strokeWidth=1.5;entryX=0.5;entryY=0;entryDx=0;entryDy=0;exitX=0.124;exitY=0.95;exitDx=0;exitDy=0;exitPerimeter=0;" parent="sbYHViqBqOkO2JZsujo5-1" source="RLHbCU7XjAbYTLyCm93H-120" target="RLHbCU7XjAbYTLyCm93H-87" edge="1">
          <mxGeometry width="50" height="50" relative="1" as="geometry">
            <mxPoint x="81" y="332.0000000000001" as="sourcePoint" />
            <mxPoint x="135" y="366" as="targetPoint" />
          </mxGeometry>
        </mxCell>
        <mxCell id="RLHbCU7XjAbYTLyCm93H-90" value="&lt;font style=&quot;font-size: 10px&quot;&gt;13&lt;/font&gt;" style="ellipse;whiteSpace=wrap;html=1;aspect=fixed;rounded=1;glass=1;fillColor=#FFFFFF;spacing=0;spacingBottom=2;spacingLeft=0;strokeWidth=1.5;" parent="sbYHViqBqOkO2JZsujo5-1" vertex="1">
          <mxGeometry x="72" y="350" width="18" height="18" as="geometry" />
        </mxCell>
        <mxCell id="RLHbCU7XjAbYTLyCm93H-92" value="" style="endArrow=classic;html=1;strokeWidth=1.5;exitX=0.5;exitY=0;exitDx=0;exitDy=0;rounded=0;entryX=0;entryY=0.5;entryDx=0;entryDy=0;" parent="sbYHViqBqOkO2JZsujo5-1" target="RLHbCU7XjAbYTLyCm93H-14" edge="1">
          <mxGeometry relative="1" as="geometry">
            <mxPoint x="291" y="90" as="sourcePoint" />
            <mxPoint x="531" y="116" as="targetPoint" />
            <Array as="points">
              <mxPoint x="291" y="81" />
              <mxPoint x="470" y="80" />
            </Array>
          </mxGeometry>
        </mxCell>
        <mxCell id="RLHbCU7XjAbYTLyCm93H-93" value="&lt;font style=&quot;font-size: 10px&quot;&gt;5&lt;/font&gt;" style="ellipse;whiteSpace=wrap;html=1;aspect=fixed;rounded=1;glass=1;fillColor=#FFFFFF;spacing=0;spacingBottom=2;strokeWidth=1.5;" parent="sbYHViqBqOkO2JZsujo5-1" vertex="1">
          <mxGeometry x="362" y="72" width="18" height="18" as="geometry" />
        </mxCell>
        <mxCell id="RLHbCU7XjAbYTLyCm93H-94" value="&lt;font style=&quot;font-size: 10px&quot;&gt;20&lt;/font&gt;" style="ellipse;whiteSpace=wrap;html=1;aspect=fixed;rounded=1;glass=1;fillColor=#FFFFFF;spacing=0;spacingBottom=2;strokeWidth=1.5;" parent="sbYHViqBqOkO2JZsujo5-1" vertex="1">
          <mxGeometry x="638" y="420" width="18" height="18" as="geometry" />
        </mxCell>
        <mxCell id="RLHbCU7XjAbYTLyCm93H-95" value="(1) PIT tag survival from summer rearing to LGR&lt;br&gt;(2) Mean parr length at summer tagging&lt;br&gt;(3) Abundance of parr passing screw trap in fall&lt;br&gt;(4) PIT tag survival from screw trap in fall to LGR&lt;br&gt;(5) PIT tag survival from early winter to LGR&lt;br&gt;(6) Abundance of smolt passing screw trap in spring&lt;br&gt;(7) Mean smolt length at screw trap in spring&lt;br&gt;(8) PIT tag survival from screw trap in spring to LGR&lt;br&gt;(9) *Abundance of hatchery-origin smolt released&lt;br&gt;(10) PIT tag survival of hatchery smolt to LGR" style="text;html=1;strokeColor=none;fillColor=none;align=left;verticalAlign=top;whiteSpace=wrap;rounded=0;glass=1;fontSize=10;" parent="sbYHViqBqOkO2JZsujo5-1" vertex="1">
          <mxGeometry x="182" y="461" width="246" height="129" as="geometry" />
        </mxCell>
        <mxCell id="RLHbCU7XjAbYTLyCm93H-96" value="" style="endArrow=classic;html=1;strokeWidth=1.5;exitX=1;exitY=0.75;exitDx=0;exitDy=0;dashed=1;strokeColor=#000000;dashPattern=1 2;entryX=0;entryY=0.75;entryDx=0;entryDy=0;" parent="sbYHViqBqOkO2JZsujo5-1" source="RLHbCU7XjAbYTLyCm93H-10" target="RLHbCU7XjAbYTLyCm93H-113" edge="1">
          <mxGeometry relative="1" as="geometry">
            <mxPoint x="91" y="86" as="sourcePoint" />
            <mxPoint x="157" y="86" as="targetPoint" />
          </mxGeometry>
        </mxCell>
        <mxCell id="RLHbCU7XjAbYTLyCm93H-97" value="" style="endArrow=classic;html=1;strokeWidth=1.5;exitX=1;exitY=0.5;exitDx=0;exitDy=0;dashed=1;strokeColor=#3399FF;rounded=0;entryX=0;entryY=0.75;entryDx=0;entryDy=0;dashPattern=1 2;" parent="sbYHViqBqOkO2JZsujo5-1" source="RLHbCU7XjAbYTLyCm93H-113" target="RLHbCU7XjAbYTLyCm93H-12" edge="1">
          <mxGeometry relative="1" as="geometry">
            <mxPoint x="201" y="73" as="sourcePoint" />
            <mxPoint x="379" y="74" as="targetPoint" />
            <Array as="points">
              <mxPoint x="239" y="75" />
              <mxPoint x="359" y="75" />
              <mxPoint x="359" y="62" />
            </Array>
          </mxGeometry>
        </mxCell>
        <mxCell id="RLHbCU7XjAbYTLyCm93H-98" value="&lt;font style=&quot;font-size: 10px&quot;&gt;7&lt;/font&gt;" style="ellipse;whiteSpace=wrap;html=1;aspect=fixed;rounded=1;glass=1;fillColor=#FFFFFF;spacing=0;spacingBottom=2;strokeColor=#3399FF;strokeWidth=1.5;" parent="sbYHViqBqOkO2JZsujo5-1" vertex="1">
          <mxGeometry x="476" y="83" width="18" height="18" as="geometry" />
        </mxCell>
        <mxCell id="RLHbCU7XjAbYTLyCm93H-99" value="" style="endArrow=classic;html=1;strokeWidth=1;dashed=1;dashPattern=1 2;" parent="sbYHViqBqOkO2JZsujo5-1" edge="1">
          <mxGeometry width="50" height="50" relative="1" as="geometry">
            <mxPoint x="29.999999999999886" y="525.9000000000001" as="sourcePoint" />
            <mxPoint x="64.00000000000011" y="526.0999999999999" as="targetPoint" />
          </mxGeometry>
        </mxCell>
        <mxCell id="RLHbCU7XjAbYTLyCm93H-100" value="&lt;font style=&quot;font-size: 10px&quot;&gt;Growth rate (body size)&lt;/font&gt;" style="text;html=1;strokeColor=none;fillColor=none;align=left;verticalAlign=middle;whiteSpace=wrap;rounded=0;glass=1;dashed=1;fontSize=10;fontStyle=2" parent="sbYHViqBqOkO2JZsujo5-1" vertex="1">
          <mxGeometry x="66.25" y="518" width="126" height="16" as="geometry" />
        </mxCell>
        <mxCell id="RLHbCU7XjAbYTLyCm93H-103" value="&lt;span style=&quot;font-size: 10px&quot;&gt;&lt;i&gt;Age-0&lt;br&gt;&lt;/i&gt;&lt;/span&gt;" style="text;html=1;strokeColor=none;fillColor=none;align=center;verticalAlign=middle;whiteSpace=wrap;rounded=0;glass=1;dashed=1;fontStyle=0;spacing=2;" parent="sbYHViqBqOkO2JZsujo5-1" vertex="1">
          <mxGeometry x="45.62" y="2" width="30.75" height="16" as="geometry" />
        </mxCell>
        <mxCell id="RLHbCU7XjAbYTLyCm93H-104" value="&lt;span style=&quot;font-size: 10px&quot;&gt;&lt;i&gt;Age-1&lt;br&gt;&lt;/i&gt;&lt;/span&gt;" style="text;html=1;strokeColor=none;fillColor=none;align=center;verticalAlign=middle;whiteSpace=wrap;rounded=0;glass=1;dashed=1;fontStyle=0" parent="sbYHViqBqOkO2JZsujo5-1" vertex="1">
          <mxGeometry x="229" y="2" width="31" height="16" as="geometry" />
        </mxCell>
        <mxCell id="RLHbCU7XjAbYTLyCm93H-105" value="&lt;span style=&quot;font-size: 10px&quot;&gt;&lt;i&gt;Age-2&lt;br&gt;&lt;/i&gt;&lt;/span&gt;" style="text;html=1;strokeColor=none;fillColor=none;align=center;verticalAlign=middle;whiteSpace=wrap;rounded=0;glass=1;dashed=1;fontStyle=0" parent="sbYHViqBqOkO2JZsujo5-1" vertex="1">
          <mxGeometry x="542.5" y="2" width="31.5" height="16" as="geometry" />
        </mxCell>
        <mxCell id="RLHbCU7XjAbYTLyCm93H-106" value="" style="endArrow=none;html=1;strokeWidth=1;strokeColor=#CCCCCC;exitX=1;exitY=0.5;exitDx=0;exitDy=0;entryX=0;entryY=0.5;entryDx=0;entryDy=0;" parent="sbYHViqBqOkO2JZsujo5-1" source="RLHbCU7XjAbYTLyCm93H-103" target="RLHbCU7XjAbYTLyCm93H-104" edge="1">
          <mxGeometry width="50" height="50" relative="1" as="geometry">
            <mxPoint x="110" y="10" as="sourcePoint" />
            <mxPoint x="110" y="170" as="targetPoint" />
          </mxGeometry>
        </mxCell>
        <mxCell id="RLHbCU7XjAbYTLyCm93H-107" value="" style="endArrow=none;html=1;strokeWidth=1;strokeColor=#CCCCCC;exitX=0;exitY=0.5;exitDx=0;exitDy=0;entryX=0.943;entryY=0.55;entryDx=0;entryDy=0;entryPerimeter=0;" parent="sbYHViqBqOkO2JZsujo5-1" source="RLHbCU7XjAbYTLyCm93H-103" target="RLHbCU7XjAbYTLyCm93H-6" edge="1">
          <mxGeometry width="50" height="50" relative="1" as="geometry">
            <mxPoint x="89.24999999999977" y="20" as="sourcePoint" />
            <mxPoint x="215" y="20" as="targetPoint" />
          </mxGeometry>
        </mxCell>
        <mxCell id="RLHbCU7XjAbYTLyCm93H-108" value="" style="endArrow=none;html=1;strokeWidth=1;strokeColor=#CCCCCC;exitX=1;exitY=0.5;exitDx=0;exitDy=0;entryX=0;entryY=0.5;entryDx=0;entryDy=0;" parent="sbYHViqBqOkO2JZsujo5-1" source="RLHbCU7XjAbYTLyCm93H-104" target="RLHbCU7XjAbYTLyCm93H-105" edge="1">
          <mxGeometry width="50" height="50" relative="1" as="geometry">
            <mxPoint x="241.9999999999999" y="10" as="sourcePoint" />
            <mxPoint x="370.63" y="10" as="targetPoint" />
          </mxGeometry>
        </mxCell>
        <mxCell id="RLHbCU7XjAbYTLyCm93H-109" value="" style="endArrow=none;html=1;strokeWidth=1;strokeColor=#CCCCCC;exitX=1;exitY=0.5;exitDx=0;exitDy=0;" parent="sbYHViqBqOkO2JZsujo5-1" source="RLHbCU7XjAbYTLyCm93H-105" edge="1">
          <mxGeometry width="50" height="50" relative="1" as="geometry">
            <mxPoint x="560" y="10" as="sourcePoint" />
            <mxPoint x="719" y="10" as="targetPoint" />
          </mxGeometry>
        </mxCell>
        <mxCell id="RLHbCU7XjAbYTLyCm93H-110" value="Parr&lt;font size=&quot;1&quot;&gt;&lt;br&gt;(Fall Migrants)&lt;/font&gt;" style="whiteSpace=wrap;html=1;rounded=1;strokeWidth=1.5;" parent="sbYHViqBqOkO2JZsujo5-1" vertex="1">
          <mxGeometry x="269" y="39" width="80" height="30" as="geometry" />
        </mxCell>
        <mxCell id="RLHbCU7XjAbYTLyCm93H-111" value="&lt;font style=&quot;font-size: 10px&quot;&gt;3&lt;/font&gt;" style="ellipse;whiteSpace=wrap;html=1;aspect=fixed;rounded=1;glass=1;fillColor=#FFFFFF;spacing=0;spacingBottom=2;strokeWidth=1.5;" parent="sbYHViqBqOkO2JZsujo5-1" vertex="1">
          <mxGeometry x="261" y="30" width="18" height="18" as="geometry" />
        </mxCell>
        <mxCell id="RLHbCU7XjAbYTLyCm93H-112" value="Parr&lt;font size=&quot;1&quot;&gt;&lt;br&gt;(Spring Migrants)&lt;/font&gt;" style="whiteSpace=wrap;html=1;rounded=1;strokeWidth=1.5;" parent="sbYHViqBqOkO2JZsujo5-1" vertex="1">
          <mxGeometry x="269" y="90" width="80" height="30" as="geometry" />
        </mxCell>
        <mxCell id="RLHbCU7XjAbYTLyCm93H-113" value="Total Parr" style="rounded=1;whiteSpace=wrap;html=1;strokeColor=#3399FF;strokeWidth=1.5;" parent="sbYHViqBqOkO2JZsujo5-1" vertex="1">
          <mxGeometry x="168" y="65" width="60" height="30" as="geometry" />
        </mxCell>
        <mxCell id="RLHbCU7XjAbYTLyCm93H-114" value="&lt;font style=&quot;font-size: 10px&quot;&gt;2&lt;/font&gt;" style="ellipse;whiteSpace=wrap;html=1;aspect=fixed;rounded=1;glass=1;fillColor=#FFFFFF;spacing=0;spacingBottom=2;strokeColor=#3399FF;strokeWidth=1.5;" parent="sbYHViqBqOkO2JZsujo5-1" vertex="1">
          <mxGeometry x="215" y="87" width="18" height="18" as="geometry" />
        </mxCell>
        <mxCell id="RLHbCU7XjAbYTLyCm93H-115" value="" style="group;strokeWidth=1.5;strokeColor=none;" parent="sbYHViqBqOkO2JZsujo5-1" vertex="1" connectable="0">
          <mxGeometry x="35" y="294" width="370" height="90" as="geometry" />
        </mxCell>
        <mxCell id="RLHbCU7XjAbYTLyCm93H-116" value="" style="whiteSpace=wrap;html=1;rounded=1;strokeWidth=1.5;" parent="RLHbCU7XjAbYTLyCm93H-115" vertex="1">
          <mxGeometry width="370" height="50" as="geometry" />
        </mxCell>
        <mxCell id="RLHbCU7XjAbYTLyCm93H-117" value="Age-3 Adult&lt;font size=&quot;1&quot;&gt;&lt;br&gt;(By Origin)&lt;/font&gt;" style="whiteSpace=wrap;html=1;rounded=1;strokeWidth=1.5;" parent="RLHbCU7XjAbYTLyCm93H-115" vertex="1">
          <mxGeometry width="90" height="30" as="geometry" />
        </mxCell>
        <mxCell id="RLHbCU7XjAbYTLyCm93H-118" value="Age-4 Adult&lt;font size=&quot;1&quot;&gt;&lt;br&gt;(By Origin)&lt;/font&gt;" style="whiteSpace=wrap;html=1;rounded=1;strokeWidth=1.5;" parent="RLHbCU7XjAbYTLyCm93H-115" vertex="1">
          <mxGeometry x="140" width="90" height="30" as="geometry" />
        </mxCell>
        <mxCell id="RLHbCU7XjAbYTLyCm93H-119" value="Age-5 Adult&lt;font size=&quot;1&quot;&gt;&lt;br&gt;(By Origin)&lt;/font&gt;" style="whiteSpace=wrap;html=1;rounded=1;strokeWidth=1.5;" parent="RLHbCU7XjAbYTLyCm93H-115" vertex="1">
          <mxGeometry x="280" width="90" height="30" as="geometry" />
        </mxCell>
        <mxCell id="RLHbCU7XjAbYTLyCm93H-120" value="Adults Below BON from 3 Consecutive Brood Years&amp;nbsp;&amp;nbsp;" style="text;html=1;strokeColor=none;fillColor=none;align=center;verticalAlign=middle;whiteSpace=wrap;rounded=0;glass=1;" parent="RLHbCU7XjAbYTLyCm93H-115" vertex="1">
          <mxGeometry y="30" width="370" height="20" as="geometry" />
        </mxCell>
        <mxCell id="RLHbCU7XjAbYTLyCm93H-91" value="&lt;font style=&quot;font-size: 10px&quot;&gt;&lt;i&gt;Harvest Below BON&lt;/i&gt;&lt;/font&gt;" style="text;html=1;strokeColor=none;fillColor=none;align=center;verticalAlign=middle;whiteSpace=wrap;rounded=0;glass=1;dashed=1;" parent="RLHbCU7XjAbYTLyCm93H-115" vertex="1">
          <mxGeometry x="52" y="57" width="61" height="21" as="geometry" />
        </mxCell>
        <mxCell id="RLHbCU7XjAbYTLyCm93H-56" value="&lt;font style=&quot;font-size: 10px&quot;&gt;&lt;i&gt;&amp;nbsp;Tributary Harvest Weir Removals&lt;/i&gt;&lt;/font&gt;" style="text;html=1;strokeColor=none;fillColor=none;align=center;verticalAlign=middle;whiteSpace=wrap;rounded=0;glass=1;dashed=1;" parent="RLHbCU7XjAbYTLyCm93H-115" vertex="1">
          <mxGeometry x="263" y="60" width="83.5" height="30" as="geometry" />
        </mxCell>
        <mxCell id="RLHbCU7XjAbYTLyCm93H-127" value="&lt;b&gt;Notation&lt;/b&gt;" style="text;html=1;resizable=0;autosize=1;align=center;verticalAlign=middle;points=[];fillColor=none;strokeColor=none;rounded=0;glass=1;" parent="sbYHViqBqOkO2JZsujo5-1" vertex="1">
          <mxGeometry x="22" y="453" width="59" height="18" as="geometry" />
        </mxCell>
        <mxCell id="RLHbCU7XjAbYTLyCm93H-34" value="Age-5 Juvenile&lt;font size=&quot;1&quot;&gt;&lt;br&gt;(By Origin)&lt;/font&gt;" style="whiteSpace=wrap;html=1;rounded=1;strokeWidth=1.5;" parent="sbYHViqBqOkO2JZsujo5-1" vertex="1">
          <mxGeometry x="456" y="206" width="90" height="30" as="geometry" />
        </mxCell>
        <mxCell id="Ccwzo6zG5kxwgTU897YW-0" value="" style="rounded=0;whiteSpace=wrap;html=1;fontSize=13;fontColor=#FFFFFF;strokeWidth=2.5;fillColor=none;" parent="sbYHViqBqOkO2JZsujo5-1" vertex="1">
          <mxGeometry x="1" y="1" width="718" height="588" as="geometry" />
        </mxCell>
        <mxCell id="LbGDzVeuzoAhw-SEauXH-0" value="" style="endArrow=classic;html=1;strokeWidth=1;dashed=1;dashPattern=8 8;" edge="1" parent="sbYHViqBqOkO2JZsujo5-1">
          <mxGeometry width="50" height="50" relative="1" as="geometry">
            <mxPoint x="28.999999999999886" y="541.9000000000001" as="sourcePoint" />
            <mxPoint x="63.000000000000114" y="542.0999999999999" as="targetPoint" />
          </mxGeometry>
        </mxCell>
        <mxCell id="LbGDzVeuzoAhw-SEauXH-1" value="&lt;font style=&quot;font-size: 10px&quot;&gt;Generational link&lt;/font&gt;" style="text;html=1;strokeColor=none;fillColor=none;align=left;verticalAlign=middle;whiteSpace=wrap;rounded=0;glass=1;dashed=1;fontSize=10;fontStyle=2" vertex="1" parent="sbYHViqBqOkO2JZsujo5-1">
          <mxGeometry x="65.25" y="534" width="126" height="16" as="geometry" />
        </mxCell>
        <mxCell id="LbGDzVeuzoAhw-SEauXH-2" value="" style="whiteSpace=wrap;html=1;rounded=1;fillColor=#3399FF;strokeColor=none;" vertex="1" parent="sbYHViqBqOkO2JZsujo5-1">
          <mxGeometry x="37" y="548" width="15" height="15" as="geometry" />
        </mxCell>
        <mxCell id="LbGDzVeuzoAhw-SEauXH-3" value="&lt;font style=&quot;font-size: 10px&quot;&gt;Sized-based quantity&lt;/font&gt;" style="text;html=1;strokeColor=none;fillColor=none;align=left;verticalAlign=middle;whiteSpace=wrap;rounded=0;glass=1;dashed=1;fontSize=10;fontStyle=2" vertex="1" parent="sbYHViqBqOkO2JZsujo5-1">
          <mxGeometry x="66.25" y="549" width="126" height="16" as="geometry" />
        </mxCell>
        <mxCell id="LbGDzVeuzoAhw-SEauXH-4" value="&lt;font style=&quot;font-size: 10px&quot;&gt;##&lt;/font&gt;" style="ellipse;whiteSpace=wrap;html=1;aspect=fixed;rounded=1;glass=1;fillColor=#FFFFFF;spacing=0;spacingBottom=2;spacingLeft=0;" vertex="1" parent="sbYHViqBqOkO2JZsujo5-1">
          <mxGeometry x="36" y="565" width="18" height="18" as="geometry" />
        </mxCell>
        <mxCell id="LbGDzVeuzoAhw-SEauXH-5" value="&lt;font style=&quot;font-size: 10px&quot;&gt;Data source identifier&lt;/font&gt;" style="text;html=1;strokeColor=none;fillColor=none;align=left;verticalAlign=middle;whiteSpace=wrap;rounded=0;glass=1;dashed=1;fontSize=10;fontStyle=2" vertex="1" parent="sbYHViqBqOkO2JZsujo5-1">
          <mxGeometry x="66.25" y="566" width="126" height="16" as="geometry" />
        </mxCell>
      </root>
    </mxGraphModel>
  </diagram>
</mxfile>
